<svg width="209" height="152" viewBox="0 0 209 152" fill="none" xmlns="http://www.w3.org/2000/svg">
<path d="M195.3 17.151C187.216 7.13282 176.457 1.1226 165.047 0.251411C153.638 -0.619775 142.365 3.70814 133.35 12.4207C125.118 4.4929 114.991 0.188225 104.566 0.185721C94.1416 0.183217 84.0134 4.48304 75.7789 12.4068C66.3876 3.27234 54.5379 -1.07453 42.6488 0.253693C30.7598 1.58191 19.728 8.48505 11.8056 19.5538C3.88329 30.6225 -0.332134 45.0221 0.0199466 59.8129C0.372028 74.6036 5.26506 88.6705 13.7001 99.1405L42.5069 134.854C42.5292 134.881 42.5515 134.907 42.5766 134.934C42.6017 134.962 42.6087 134.975 42.6247 134.995C42.6547 135.032 42.6868 135.066 42.7168 135.103C43.1747 135.665 43.6395 136.212 44.1113 136.745C44.3539 137.021 44.5994 137.288 44.8462 137.557C45.0465 137.773 45.2478 137.987 45.45 138.199C53.6616 146.824 64.0178 151.684 74.7783 151.96C85.5396 152.238 96.0493 147.916 104.543 139.721C113.558 148.433 124.831 152.761 136.24 151.89C147.65 151.019 158.409 145.009 166.493 134.991L195.3 99.2823C204.074 88.3827 209.001 73.6138 209.001 58.2164C209.001 42.8191 204.073 28.0507 195.3 17.151ZM104.557 15.3117C111.406 15.3063 118.103 17.8198 123.798 22.5339C129.495 27.248 133.934 33.9509 136.556 41.7942C139.178 49.6375 139.863 58.2686 138.526 66.5949C137.188 74.9214 133.888 82.5688 129.043 88.5693L104.557 118.921L80.0704 88.5693C75.2253 82.5688 71.9252 74.9213 70.5879 66.5947C69.2505 58.2682 69.9359 49.6371 72.5576 41.7938C75.1792 33.9504 79.6193 27.2476 85.3151 22.5335C91.0116 17.8195 97.708 15.3061 104.557 15.3117ZM41.1201 93.9262C41.1076 88.2867 41.9977 82.7006 43.7387 77.4906C45.4798 72.2807 48.0372 67.5505 51.263 63.5739L57.7801 55.4954C57.4646 63.5703 58.5159 71.6378 60.8664 79.179C63.2168 86.7197 66.8146 93.5676 71.428 99.2823L95.4134 129.014C90.2398 133.506 84.1709 136.151 77.8678 136.661C71.5654 137.171 65.2702 135.527 59.6694 131.908C54.0686 128.287 49.3769 122.832 46.1058 116.133C42.8347 109.436 41.1096 101.753 41.1187 93.9236L41.1201 93.9262ZM22.3411 88.4267C16.212 80.831 12.6038 70.662 12.2293 59.9288C11.8548 49.1955 14.7412 38.6784 20.3183 30.455C25.8955 22.2316 33.7578 16.9 42.3522 15.5132C50.9466 14.1264 59.6481 16.7855 66.7377 22.9651L42.6206 52.8602C38.2564 58.2405 34.7965 64.6404 32.4412 71.6894C30.0859 78.7384 28.8818 86.2965 28.8987 93.9262C28.8987 94.8268 28.9157 95.724 28.9496 96.6185L22.3411 88.4267ZM133.366 136.85C126.291 136.87 119.383 134.184 113.586 129.157L137.689 99.2823C142.303 93.5676 145.9 86.7197 148.25 79.1788C150.601 71.6377 151.652 63.5703 151.337 55.4954L157.854 63.5739C162.697 69.5772 165.994 77.2258 167.33 85.5524C168.667 93.8787 167.981 102.51 165.359 110.353C162.738 118.196 158.3 124.9 152.605 129.616C146.91 134.333 140.215 136.85 133.366 136.85ZM186.659 88.5693L180.165 96.6185C180.198 95.7248 180.215 94.8277 180.216 93.9262C180.233 86.2965 179.029 78.7383 176.673 71.6893C174.318 64.6403 170.858 58.2405 166.494 52.8602L142.393 22.9849C149.495 16.8587 158.191 14.2504 166.767 15.6736C175.343 17.0968 183.179 22.4484 188.731 30.6747C194.283 38.9009 197.149 49.4057 196.766 60.1209C196.383 70.836 192.777 80.9849 186.659 88.5693Z" fill="#008C8C"/>
</svg>
