<svg width="40" height="30" viewBox="0 0 40 30" fill="none" xmlns="http://www.w3.org/2000/svg">
<path d="M37.3778 3.38171C35.8307 1.4042 33.7715 0.217822 31.5878 0.0458558C29.4043 -0.12611 27.2468 0.72819 25.5215 2.44799C23.946 0.883097 22.0078 0.0333833 20.0126 0.032889C18.0175 0.0323948 16.0791 0.88115 14.5031 2.44526C12.7058 0.642166 10.4379 -0.215875 8.1625 0.0463062C5.88709 0.308487 3.77576 1.67112 2.25953 3.85601C0.743297 6.04091 -0.0634785 8.88328 0.00390513 11.8029C0.0712888 14.7225 1.00775 17.4992 2.62211 19.5659L8.13534 26.6155C8.13961 26.6208 8.14388 26.6259 8.14869 26.6313C8.15349 26.6368 8.15482 26.6394 8.15789 26.6433C8.16363 26.6506 8.16977 26.6573 8.17551 26.6646C8.26314 26.7755 8.35209 26.8835 8.4424 26.9888C8.48883 27.0432 8.53581 27.0959 8.58305 27.149C8.62138 27.1916 8.65991 27.2339 8.69861 27.2757C10.2702 28.9782 12.2522 29.9375 14.3117 29.9921C16.3712 30.0469 18.3826 29.1938 20.0082 27.5762C21.7335 29.2959 23.8911 30.1503 26.0746 29.9783C28.2583 29.8063 30.3174 28.6199 31.8646 26.6424L37.378 19.5939C39.0571 17.4424 40 14.5271 40 11.4878C40 8.44843 39.057 5.53324 37.3778 3.38171ZM20.0109 3.01866C21.3217 3.01759 22.6033 3.51372 23.6934 4.44426C24.7837 5.37479 25.6333 6.69789 26.135 8.24611C26.6368 9.79432 26.768 11.498 26.512 13.1416C26.2561 14.7852 25.6245 16.2947 24.6972 17.4792L20.0109 23.4704L15.3245 17.4792C14.3972 16.2947 13.7656 14.7852 13.5097 13.1416C13.2537 11.498 13.3849 9.79425 13.8866 8.24604C14.3884 6.69781 15.2382 5.37471 16.3283 4.44419C17.4185 3.51367 18.7001 3.01755 20.0109 3.01866ZM7.86992 18.5366C7.86753 17.4234 8.03789 16.3208 8.3711 15.2923C8.70431 14.2639 9.19376 13.3302 9.81113 12.5453L11.0584 10.9506C10.998 12.5446 11.1992 14.137 11.6491 15.6256C12.0989 17.1141 12.7875 18.4658 13.6705 19.5939L18.2609 25.4627C17.2708 26.3493 16.1093 26.8716 14.9029 26.9722C13.6967 27.0729 12.4919 26.7484 11.42 26.0339C10.3481 25.3192 9.45016 24.2424 8.82411 22.9202C8.19807 21.5981 7.86792 20.0816 7.86965 18.5361L7.86992 18.5366ZM4.27588 17.4511C3.10284 15.9517 2.41228 13.9444 2.34061 11.8258C2.26893 9.70709 2.82135 7.63107 3.88874 6.00784C4.95613 4.3846 6.46089 3.33217 8.10573 3.05843C9.75059 2.78469 11.4159 3.30958 12.7728 4.52938L8.15709 10.4305C7.32185 11.4925 6.65968 12.7558 6.20889 14.1472C5.75812 15.5386 5.52767 17.0306 5.53092 18.5366C5.53092 18.7144 5.53416 18.8915 5.54066 19.0681L4.27588 17.4511ZM25.5245 27.0094C24.1705 27.0135 22.8485 26.4833 21.7389 25.491L26.3519 19.5939C27.2349 18.4658 27.9233 17.1141 28.3732 15.6256C28.823 14.137 29.0242 12.5446 28.9639 10.9506L30.2112 12.5453C31.1381 13.7303 31.7692 15.2401 32.0249 16.8837C32.2807 18.5272 32.1494 20.2309 31.6476 21.7792C31.146 23.3274 30.2965 24.6506 29.2067 25.5816C28.1167 26.5126 26.8354 27.0094 25.5245 27.0094ZM35.7241 17.4792L34.4813 19.0681C34.4876 18.8916 34.4908 18.7146 34.491 18.5366C34.4942 17.0306 34.2638 15.5386 33.813 14.1472C33.3622 12.7558 32.7 11.4925 31.8647 10.4305L27.2522 4.5333C28.6115 3.32401 30.2757 2.80916 31.917 3.09009C33.5584 3.37101 35.058 4.42739 36.1207 6.0512C37.1833 7.675 37.7319 9.74858 37.6585 11.8637C37.5851 13.9788 36.895 15.9821 35.7241 17.4792Z" fill="#008C8C"/>
</svg>
